<svg xmlns="http://www.w3.org/2000/svg" version="1.1" xmlns:xlink="http://www.w3.org/1999/xlink" xmlns:svgjs="http://svgjs.dev/svgjs" width="1500" height="1500" viewBox="0 0 1500 1500"><rect width="1500" height="1500" fill="#000000"></rect><g transform="matrix(0.6666666666666666,0,0,0.6666666666666666,249.39393939393932,597.419691207193)"><svg viewBox="0 0 396 121" data-background-color="#21232b" preserveAspectRatio="xMidYMid meet" height="458" width="1500" xmlns="http://www.w3.org/2000/svg" xmlns:xlink="http://www.w3.org/1999/xlink"><g id="tight-bounds" transform="matrix(1,0,0,1,0.24000000000003752,-0.03422260721728776)"><svg viewBox="0 0 395.5199999999999 121.06844521443459" height="121.06844521443459" width="395.5199999999999"><g><svg viewBox="0 0 602.4847466267115 184.42023548621697" height="121.06844521443459" width="395.5199999999999"><g transform="matrix(1,0,0,1,204.98714662671156,7.814136993577591)"><svg viewBox="0 0 397.4975999999999 168.79196149906178" height="168.79196149906178" width="397.4975999999999"><g id="textblocktransform"><svg viewBox="0 0 397.4975999999999 168.79196149906178" height="168.79196149906178" width="397.4975999999999" id="textblock"><g><rect width="397.4975999999999" height="7.925357448203832" x="0" y="97.21890803409534" fill="#ffffff" opacity="1" stroke-width="0" stroke="transparent" fill-opacity="1" class="rect-qz-0" data-fill-palette-color="primary" rx="1%" id="qz-0" data-palette-color="#f4f3f0"></rect></g><g transform="matrix(1,0,0,1,0.9887999999999693,0)"><svg viewBox="0 0 395.52 87.88275397207511" height="87.88275397207511" width="395.52"><g transform="matrix(1,0,0,1,0,0)"><svg width="395.52" viewBox="1.6 -36.3 207.68 46.15" height="87.88275397207511" data-palette-color="#f4f3f0"><path d="M15.55-27Q20.85-27 24.53-24.93 28.2-22.85 28.2-18.5L28.2-18.5 18.95-18.5Q18.95-19.95 17.65-20.55L17.65-20.55Q16.75-21.05 15.4-21.05L15.4-21.05Q11.8-21.05 11.8-19.35L11.8-19.35Q11.8-18.4 13.05-18 14.3-17.6 17.15-17.15L17.15-17.15Q20.65-16.65 23-15.98 25.35-15.3 27.1-13.58 28.85-11.85 28.85-8.75L28.85-8.75Q28.85-3.7 25.08-1.55 21.3 0.6 15.2 0.6L15.2 0.6Q11.7 0.6 8.6-0.38 5.5-1.35 3.55-3.4 1.6-5.45 1.6-8.6L1.6-8.6 10.85-8.6 10.85-8.4Q10.9-6.7 12.28-6.03 13.65-5.35 15.2-5.35L15.2-5.35Q19.35-5.35 19.35-7.3L19.35-7.3Q19.35-8.3 18.05-8.75 16.75-9.2 13.8-9.7L13.8-9.7Q10.25-10.3 7.98-11 5.7-11.7 4-13.38 2.3-15.05 2.3-18.05L2.3-18.05Q2.3-22.9 5.98-24.95 9.65-27 15.55-27L15.55-27ZM43.5-16.3L51.95-26.4 63.55-26.4 53.8-15.75 63.8 0 52.5 0 46.95-9.05 43.5-5.7 43.5 0 33.55 0 33.55-36.3 43.5-36.3 43.5-16.3ZM77.2-29.5L67.25-29.5 67.25-36.25 77.2-36.25 77.2-29.5ZM77.2 0L67.25 0 67.25-26.4 77.2-26.4 77.2 0ZM93.84 0L83.89 0 83.89-36.25 93.84-36.25 93.84 0ZM110.49 0L100.54 0 100.54-36.25 110.49-36.25 110.49 0ZM129.39-27Q134.69-27 138.36-24.93 142.04-22.85 142.04-18.5L142.04-18.5 132.79-18.5Q132.79-19.95 131.49-20.55L131.49-20.55Q130.59-21.05 129.24-21.05L129.24-21.05Q125.64-21.05 125.64-19.35L125.64-19.35Q125.64-18.4 126.89-18 128.14-17.6 130.99-17.15L130.99-17.15Q134.49-16.65 136.84-15.98 139.19-15.3 140.94-13.58 142.69-11.85 142.69-8.75L142.69-8.75Q142.69-3.7 138.91-1.55 135.14 0.6 129.04 0.6L129.04 0.6Q125.54 0.6 122.44-0.38 119.34-1.35 117.39-3.4 115.44-5.45 115.44-8.6L115.44-8.6 124.69-8.6 124.69-8.4Q124.74-6.7 126.11-6.03 127.49-5.35 129.04-5.35L129.04-5.35Q133.19-5.35 133.19-7.3L133.19-7.3Q133.19-8.3 131.89-8.75 130.59-9.2 127.64-9.7L127.64-9.7Q124.09-10.3 121.81-11 119.54-11.7 117.84-13.38 116.14-15.05 116.14-18.05L116.14-18.05Q116.14-22.9 119.81-24.95 123.49-27 129.39-27L129.39-27ZM174.69 0L166.54 0 165.89-4Q164.34-1.85 161.81-0.63 159.29 0.6 156.49 0.6L156.49 0.6Q151.89 0.6 149.59-1.95 147.29-4.5 147.29-9.3L147.29-9.3 147.29-26.4 157.24-26.4 157.24-10.5Q157.24-8.8 158.11-7.78 158.99-6.75 160.59-6.75L160.59-6.75Q162.44-6.75 163.59-7.95 164.74-9.15 164.74-10.9L164.74-10.9 164.74-26.4 174.69-26.4 174.69 0ZM198.13-27Q203.48-27 206.38-23.5 209.28-20 209.28-13.15L209.28-13.15Q209.28-6.35 206.38-2.88 203.48 0.6 198.13 0.6L198.13 0.6Q193.53 0.6 190.73-2.4L190.73-2.4 190.73 9.85 180.78 9.85 180.78-26.4 188.88-26.4 189.73-22.65Q192.63-27 198.13-27L198.13-27ZM195.03-19.65Q192.83-19.65 191.73-18.1 190.63-16.55 190.63-14.05L190.63-14.05 190.63-12.4Q190.63-9.9 191.73-8.33 192.83-6.75 195.03-6.75L195.03-6.75Q199.33-6.75 199.33-11.9L199.33-11.9 199.33-14.55Q199.33-19.65 195.03-19.65L195.03-19.65Z" opacity="1" transform="matrix(1,0,0,1,0,0)" fill="#ffffff" class="wordmark-text-0" data-fill-palette-color="primary" id="text-0"></path></svg></g></svg></g><g transform="matrix(1,0,0,1,0,114.48041954431937)"><svg viewBox="0 0 395.52 54.31154195474242" height="54.31154195474242" width="395.52"><g transform="matrix(1,0,0,1,0,0)"><svg width="395.52" viewBox="3.8499999999999996 -27 200.26499998 27.5" height="54.31154195474242" data-palette-color="#f4f3f0"><path d="M4.55 0L4.55 0Q3.85 0 3.85-0.65L3.85-0.65 3.85-25.85Q3.85-26.5 4.4-26.5L4.4-26.5 7.4-26.5Q7.9-26.5 7.9-25.95L7.9-25.95 7.9-23.05Q7.9-22.8 8.03-22.75 8.15-22.7 8.4-22.9L8.4-22.9Q10-24.2 11.38-25.13 12.75-26.05 14.18-26.53 15.6-27 17.25-27L17.25-27Q20.2-27 21.98-25.65 23.75-24.3 24.35-22.6L24.35-22.6Q24.45-22.4 24.65-22.45 24.85-22.5 25.05-22.7L25.05-22.7Q26.65-24.05 28.08-25 29.5-25.95 30.98-26.48 32.45-27 34.1-27L34.1-27Q37.75-27 39.75-24.93 41.75-22.85 41.75-19.35L41.75-19.35 41.75-0.8Q41.75 0 41 0L41 0 38.2 0Q37.85 0 37.7-0.18 37.55-0.35 37.55-0.65L37.55-0.65 37.55-18.5Q37.55-20.95 36.38-22.33 35.2-23.7 32.7-23.7L32.7-23.7Q31.25-23.7 29.93-23.15 28.6-22.6 27.53-21.8 26.45-21 25.6-20.3L25.6-20.3Q25.2-19.95 25.05-19.63 24.9-19.3 24.9-18.8L24.9-18.8 24.9-0.8Q24.9 0 24.15 0L24.15 0 21.35 0Q21.05 0 20.88-0.18 20.7-0.35 20.7-0.65L20.7-0.65 20.7-18.5Q20.7-20.95 19.55-22.33 18.4-23.7 15.9-23.7L15.9-23.7Q13.8-23.7 12.05-22.7 10.3-21.7 8.05-19.65L8.05-19.65 8.05-0.75Q8.05 0 7.3 0L7.3 0 4.55 0ZM78.74-3.2L78.74-3.2Q76.89-1.4 74.72-0.45 72.54 0.5 69.84 0.5L69.84 0.5Q65.94 0.5 63.72-1.5 61.49-3.5 61.49-6.75L61.49-6.75Q61.49-9.4 62.99-11.33 64.49-13.25 67.44-14.38 70.39-15.5 74.69-15.75L74.69-15.75 78.59-16.05Q78.89-16.1 79.14-16.25 79.39-16.4 79.39-16.8L79.39-16.8 79.39-18.15Q79.39-20.85 77.72-22.43 76.04-24 73.19-24L73.19-24Q70.99-24 69.22-23 67.44-22 66.04-20L66.04-20Q65.84-19.75 65.72-19.68 65.59-19.6 65.29-19.7L65.29-19.7 62.59-20.6Q62.44-20.7 62.37-20.85 62.29-21 62.49-21.4L62.49-21.4Q63.99-24 66.72-25.5 69.44-27 73.39-27L73.39-27Q76.74-27 78.97-25.98 81.19-24.95 82.32-23.03 83.44-21.1 83.44-18.45L83.44-18.45 83.44-0.75Q83.44-0.3 83.29-0.15 83.14 0 82.79 0L82.79 0 80.24 0Q79.89 0 79.74-0.23 79.59-0.45 79.54-0.8L79.54-0.8 79.49-3.1Q79.34-3.8 78.74-3.2L78.74-3.2ZM79.39-12.7L79.39-12.7Q79.39-13.55 78.69-13.5L78.69-13.5 75.39-13.2Q73.09-13.1 71.29-12.63 69.49-12.15 68.24-11.4 66.99-10.65 66.34-9.63 65.69-8.6 65.69-7.25L65.69-7.25Q65.69-5.05 67.22-3.83 68.74-2.6 71.34-2.6L71.34-2.6Q72.94-2.6 74.42-3.18 75.89-3.75 76.99-4.65L76.99-4.65Q78.14-5.6 78.77-6.6 79.39-7.6 79.39-8.55L79.39-8.55 79.39-12.7ZM105.94 0L105.94 0Q105.59 0 105.41-0.18 105.24-0.35 105.24-0.65L105.24-0.65 105.24-25.85Q105.24-26.5 105.79-26.5L105.79-26.5 108.69-26.5Q109.24-26.5 109.24-25.95L109.24-25.95 109.24-22.7Q109.24-22.4 109.39-22.35 109.54-22.3 109.79-22.55L109.79-22.55Q111.09-24.1 112.36-25.08 113.64-26.05 114.94-26.53 116.24-27 117.54-27L117.54-27Q119.29-27 119.29-26.35L119.29-26.35 119.29-23.35Q119.29-22.85 118.84-22.95L118.84-22.95Q118.39-23 117.81-23.05 117.24-23.1 116.59-23.1L116.59-23.1Q115.49-23.1 114.24-22.63 112.99-22.15 111.91-21.3 110.84-20.45 110.14-19.4 109.44-18.35 109.44-17.3L109.44-17.3 109.44-0.75Q109.44 0 108.69 0L108.69 0 105.94 0ZM149.18 0.5L149.18 0.5Q145.43 0.5 142.55-1.23 139.68-2.95 138.1-6.03 136.53-9.1 136.53-13.1L136.53-13.1Q136.53-17.25 138.15-20.38 139.78-23.5 142.63-25.25 145.48-27 149.23-27L149.23-27Q153.03-27 155.85-25.23 158.68-23.45 160.25-20.33 161.83-17.2 161.83-13.15L161.83-13.15Q161.83-9.15 160.23-6.08 158.63-3 155.8-1.25 152.98 0.5 149.18 0.5L149.18 0.5ZM149.28-2.65L149.28-2.65Q151.88-2.65 153.73-3.93 155.58-5.2 156.55-7.58 157.53-9.95 157.53-13.25L157.53-13.25Q157.53-16.55 156.53-18.93 155.53-21.3 153.68-22.6 151.83-23.9 149.23-23.9L149.23-23.9Q146.68-23.9 144.78-22.6 142.88-21.3 141.85-18.93 140.83-16.55 140.83-13.25L140.83-13.25Q140.83-10 141.85-7.6 142.88-5.2 144.78-3.93 146.68-2.65 149.28-2.65L149.28-2.65ZM193.37-27L193.37-27Q195.97-27 197.95-26.18 199.92-25.35 201.35-23.93 202.77-22.5 203.72-20.8L203.72-20.8Q204.02-20.2 203.47-20.05L203.47-20.05 200.72-19.4Q200.37-19.25 200.07-19.7L200.07-19.7Q199.07-21.15 198.1-22.05 197.12-22.95 196.02-23.43 194.92-23.9 193.62-23.9L193.62-23.9Q191.07-23.9 189.15-22.63 187.22-21.35 186.17-18.95 185.12-16.55 185.12-13.25L185.12-13.25Q185.12-9.9 186.2-7.5 187.27-5.1 189.2-3.85 191.12-2.6 193.72-2.6L193.72-2.6Q196.12-2.6 197.87-3.8 199.62-5 201.07-7.3L201.07-7.3Q201.22-7.55 201.35-7.58 201.47-7.6 201.72-7.5L201.72-7.5 203.87-6.7Q204.22-6.55 204.07-6.05L204.07-6.05Q203.32-4.75 202.32-3.55 201.32-2.35 200-1.45 198.67-0.55 197.02-0.03 195.37 0.5 193.37 0.5L193.37 0.5Q189.67 0.5 186.85-1.23 184.02-2.95 182.42-6.03 180.82-9.1 180.82-13.15L180.82-13.15Q180.82-17.25 182.45-20.35 184.07-23.45 186.9-25.23 189.72-27 193.37-27L193.37-27Z" opacity="1" transform="matrix(1,0,0,1,0,0)" fill="#ffffff" class="slogan-text-1" data-fill-palette-color="secondary" id="text-1"></path></svg></g></svg></g></svg></g></svg></g><g><svg viewBox="0 0 184.24013759999997 184.42023548621697" height="184.42023548621697" width="184.24013759999997"><g><svg xmlns="http://www.w3.org/2000/svg" xmlns:xlink="http://www.w3.org/1999/xlink" version="1.1" x="0" y="0" viewBox="0 0 63.9375 64" enable-background="new 0 0 64 64" xml:space="preserve" height="184.42023548621697" width="184.24013759999997" class="icon-icon-0" data-fill-palette-color="accent" id="icon-0"><g fill="#2092ec" data-fill-palette-color="accent"><path d="M48.2 14.6c-0.8-1.4-1.8-2.6-2.9-3.8-0.4-0.4-1-0.4-1.4 0-0.4 0.4-0.4 1 0 1.4 1 1 1.9 2.1 2.6 3.4 0.4 0.5 0.8 0.6 1.4 0.4C48.3 15.7 48.5 15.1 48.2 14.6z" fill="#ffffff" data-fill-palette-color="accent"></path><path d="M20.1 36c-0.9-0.9-1.6-1.8-2.3-2.8-0.3-0.5-0.9-0.6-1.4-0.3-0.5 0.3-0.6 0.9-0.3 1.4 0.7 1.1 1.6 2.2 2.5 3.1 0.5 0.4 1 0.4 1.4 0C20.5 37 20.5 36.4 20.1 36z" fill="#ffffff" data-fill-palette-color="accent"></path><path d="M50 18.6c-0.2-0.5-0.7-0.8-1.2-0.7-0.5 0.2-0.8 0.7-0.7 1.2 1.8 6 0.2 12.4-4.2 16.8-0.4 0.4-0.4 1 0 1.4 0.4 0.4 0.9 0.4 1.4 0C50.2 32.5 52 25.3 50 18.6z" fill="#ffffff" data-fill-palette-color="accent"></path><path d="M20.1 12.2c0.4-0.4 0.4-1 0-1.4s-1-0.4-1.4 0c-5 5-6.8 12.2-4.6 19 0.1 0.4 0.5 0.7 1 0.7 0.1 0 0.2 0 0.3 0 0.5-0.2 0.8-0.7 0.7-1.3C14.1 23.2 15.7 16.7 20.1 12.2z" fill="#ffffff" data-fill-palette-color="accent"></path><path d="M59.5 53.3c0-3.4 1.5-6.7 4.1-8.9 0.3-0.3 0.4-0.7 0.3-1.1-0.1-0.4-0.5-0.7-0.9-0.7H47.4c5.3-4.4 8.7-11.1 8.7-18.6C56.1 10.8 45.3 0 32 0 18.7 0 7.9 10.8 7.9 24.1c0 7.5 3.4 14.1 8.7 18.6h-6C4.8 42.7 0 47.5 0 53.3S4.8 64 10.6 64H63c0.4 0 0.8-0.3 0.9-0.7 0.1-0.4 0-0.8-0.3-1.1C61 60 59.5 56.8 59.5 53.3zM9.9 24.1C9.9 11.9 19.8 2 32 2s22.1 9.9 22.1 22.1c0 7.8-4 14.6-10.1 18.6H20C13.9 38.7 9.9 31.9 9.9 24.1zM10.6 62C5.9 62 2 58.1 2 53.3s3.9-8.7 8.6-8.7h50c-2 2.4-3.1 5.5-3.1 8.7 0 3.2 1.1 6.2 3.1 8.7H10.6z" fill="#ffffff" data-fill-palette-color="accent"></path><path d="M32 30.9c3.8 0 6.8-3.1 6.8-6.8s-3.1-6.8-6.8-6.8-6.8 3.1-6.8 6.8S28.2 30.9 32 30.9zM32 19.3c2.6 0 4.8 2.2 4.8 4.8 0 2.6-2.2 4.8-4.8 4.8-2.6 0-4.8-2.2-4.8-4.8C27.2 21.5 29.4 19.3 32 19.3z" fill="#ffffff" data-fill-palette-color="accent"></path><path d="M17.3 55.8h-2.5c-0.6 0-1 0.4-1 1s0.4 1 1 1h2.5c0.6 0 1-0.4 1-1S17.8 55.8 17.3 55.8z" fill="#ffffff" data-fill-palette-color="accent"></path><path d="M48.9 55.8H21.7c-0.6 0-1 0.4-1 1s0.4 1 1 1h27.2c0.6 0 1-0.4 1-1S49.5 55.8 48.9 55.8z" fill="#ffffff" data-fill-palette-color="accent"></path><path d="M48.9 48.9H14.8c-0.6 0-1 0.4-1 1s0.4 1 1 1h34.1c0.6 0 1-0.4 1-1S49.5 48.9 48.9 48.9z" fill="#ffffff" data-fill-palette-color="accent"></path></g></svg></g></svg></g></svg></g><defs></defs></svg><rect width="395.5199999999999" height="121.06844521443459" fill="none" stroke="none" visibility="hidden"></rect></g></svg></g></svg>